<svg xmlns="http://www.w3.org/2000/svg" viewBox="0 0 454.63 284.59"><defs><style>.cls-1,.cls-2{font-size:106.11px;font-family:MadinaScript, Madina Script;}.cls-1{fill:#edae48;}.cls-2,.cls-3{fill:#00a79d;}</style></defs><g id="Layer_2" data-name="Layer 2"><g id="Layer_1-2" data-name="Layer 1"><text class="cls-1" transform="translate(21.75 101.6)">Java</text><text class="cls-2" transform="translate(107.87 200.45)">Florist</text><path class="cls-3" d="M240.93,115.81a109.44,109.44,0,0,1-5.15-13.6A64,64,0,0,1,233,87.9a26.47,26.47,0,0,1,.49-7.41,12.59,12.59,0,0,1,3.64-6.64,10.65,10.65,0,0,1,3.28-2,15.93,15.93,0,0,1,3.69-.91,26.77,26.77,0,0,1,7.38.33,67.58,67.58,0,0,1,13.88,4.33c4.46,1.81,8.87,3.74,13.26,5.69l26.26,11.89c8.76,3.95,17.55,7.83,26.45,11.43a224.52,224.52,0,0,0,27.21,9.34,64.77,64.77,0,0,0,14.16,2.22,21.54,21.54,0,0,0,7.06-.88,9.24,9.24,0,0,0,5.45-4.28,13,13,0,0,0,1.29-6.94A32.59,32.59,0,0,0,385.19,97a82.81,82.81,0,0,0-5.31-13.38,82.5,82.5,0,0,1,5.42,13.34,32.86,32.86,0,0,1,1.33,7.09,13.23,13.23,0,0,1-1.26,7.06,9.49,9.49,0,0,1-5.56,4.45,22,22,0,0,1-7.16,1,65,65,0,0,1-14.28-2.12A226.73,226.73,0,0,1,331,105.24c-8.95-3.53-17.78-7.34-26.57-11.22L278.1,82.34c-4.41-1.91-8.82-3.79-13.28-5.56a66.74,66.74,0,0,0-13.62-4.12,25.53,25.53,0,0,0-7-.25A10.78,10.78,0,0,0,238.15,75a11,11,0,0,0-3.1,5.83,24.72,24.72,0,0,0-.38,6.94,62.15,62.15,0,0,0,2.89,13.87A109.12,109.12,0,0,0,242.73,115v0a1,1,0,0,1-.48,1.33,1,1,0,0,1-1.33-.49Z"/><path class="cls-3" d="M376.72,84.78a21.09,21.09,0,0,1-18.54-1.57,22,22,0,0,1-7-6.54,26.76,26.76,0,0,1-2.32-4.23l-2-4.37-4-8.73-1-2.18-.5-1.09-.25-.55a2,2,0,0,1-.13-.33.75.75,0,0,1,0-.49.8.8,0,0,1,.82-.48l.59.06,1.18.09c.8,0,1.59.07,2.39.09a86.89,86.89,0,0,0,9.55-.28c3.13-.34,6.4-.71,9.11-2.15a31.08,31.08,0,0,0,7.07-6.22c2.13-2.37,4.09-4.89,6.09-7.4q.38-.46.78-.93A6,6,0,0,1,379,37a1.1,1.1,0,0,1,.33-.25.25.25,0,0,1,.11,0,.39.39,0,0,1,.22,0c.12.05.12.08.13.09l0,.06a1.16,1.16,0,0,1,.12.2l1,2.2,1.94,4.39,3.89,8.78c.63,1.47,1.32,2.91,1.91,4.41a18.77,18.77,0,0,1,.79,2.29l.31,1.17c.1.39.14.79.21,1.19a21.23,21.23,0,0,1-13.27,23.24Zm0,0a21.36,21.36,0,0,0,12.52-13.67,21.1,21.1,0,0,0,.55-9.48c-.47-3.19-2-6.07-3.25-9l-3.94-8.76-2-4.37-1-2.19c-.05-.06-.06-.21-.12-.16a.92.92,0,0,0-.22.18c-.14.14-.28.29-.41.44-.26.3-.51.61-.76.92-2,2.52-3.93,5.06-6.06,7.45a31.27,31.27,0,0,1-7.16,6.37c-2.87,1.49-6.15,1.82-9.31,2.15a87.85,87.85,0,0,1-9.6.23c-.8,0-1.6-.06-2.4-.11l-1.2-.09c-.38,0-.87-.22-1,.19a.62.62,0,0,0,.1.53l.24.55.49,1.1,1,2.19L347.09,68l2,4.38a28,28,0,0,0,2.28,4.21,21.77,21.77,0,0,0,6.92,6.52A21,21,0,0,0,376.7,84.73Z"/><path class="cls-3" d="M375.46,82.78a29.81,29.81,0,0,1-7.78-10.14A22.27,22.27,0,0,1,366.07,60a35.38,35.38,0,0,1,4.58-12,77.6,77.6,0,0,1,7.55-10.46.25.25,0,0,1,.38.32h0A77.39,77.39,0,0,0,371,48.18,35,35,0,0,0,366.32,60a22,22,0,0,0,1.47,12.55A29.81,29.81,0,0,0,375.46,82.78Z"/><path class="cls-3" d="M374.47,42.13c.63-.79,1.31-1.53,2-2.27a9.17,9.17,0,0,0,1.69-2.36,1.5,1.5,0,0,0,0-1.26,2.54,2.54,0,0,0-1-.9,7,7,0,0,0-2.86-.14A69.93,69.93,0,0,0,362.67,38c-1.9.59-3.81,1.2-5.68,1.88a48.21,48.21,0,0,0-5.42,2.5,36.51,36.51,0,0,0-5,3.19,15.41,15.41,0,0,0-2.17,2,4.41,4.41,0,0,0-1.22,2.58,4.7,4.7,0,0,0,1,2.67,5.22,5.22,0,0,0,2.44,1.56,16,16,0,0,0,5.9.46,49.21,49.21,0,0,0,5.91-.86c1-.2,2-.42,2.93-.65l1.45-.36a7.55,7.55,0,0,0,1.42-.44,6.53,6.53,0,0,0,3.29-4.7,8.66,8.66,0,0,0,.13-3,2.76,2.76,0,0,0-1.47-2.41,6.13,6.13,0,0,0-2.91-.45,9.46,9.46,0,0,0-7.42,4.44,9.56,9.56,0,0,1,4.5-3.81,9.72,9.72,0,0,1,2.91-.68,6.32,6.32,0,0,1,2.95.45,2.15,2.15,0,0,1,1.09,1,4.28,4.28,0,0,1,.43,1.44,8.84,8.84,0,0,1-.12,3,6.6,6.6,0,0,1-3.33,4.79,8.31,8.31,0,0,1-1.44.46l-1.45.37c-1,.24-1.95.45-2.93.66a49,49,0,0,1-5.93.89,16.1,16.1,0,0,1-6-.44A5.36,5.36,0,0,1,344,53a4.86,4.86,0,0,1-1.11-2.82,4.72,4.72,0,0,1,1.27-2.75,14.8,14.8,0,0,1,2.2-2.06,35.39,35.39,0,0,1,5.06-3.25,47.18,47.18,0,0,1,5.44-2.54c1.89-.7,3.78-1.32,5.69-1.93a70.23,70.23,0,0,1,11.67-2.85,7.13,7.13,0,0,1,3.07.16A2.76,2.76,0,0,1,378.5,36a1.89,1.89,0,0,1,.06,1.64,9.3,9.3,0,0,1-1.75,2.52c-.67.75-1.34,1.48-1.95,2.26a.25.25,0,1,1-.39-.31Z"/></g></g></svg>