<svg xmlns="http://www.w3.org/2000/svg" viewBox="0 0 798.07 499.59"><defs><style>.cls-1,.cls-2{font-size:186.26px;font-family:MadinaScript, Madina Script;}.cls-1{fill:#edae48;}.cls-2,.cls-3{fill:#00a79d;}</style></defs><g id="Layer_2" data-name="Layer 2"><g id="Layer_1-2" data-name="Layer 1"><text class="cls-1" transform="translate(38.18 178.35)">Java</text><text class="cls-2" transform="translate(189.37 351.88)">Florist</text><path class="cls-3" d="M424.23,209.51a56.12,56.12,0,0,1-12.2-7.14,105.42,105.42,0,0,1-10.53-9A122.51,122.51,0,0,1,384,172.11a81.63,81.63,0,0,1-6.56-12.24,45.16,45.16,0,0,1-3.65-13.67,25.46,25.46,0,0,1,.38-7.32A19.38,19.38,0,0,1,377,132a20.17,20.17,0,0,1,5.25-5.29,28.13,28.13,0,0,1,6.45-3.31,51.42,51.42,0,0,1,13.74-2.75,100.6,100.6,0,0,1,13.78,0c4.56.28,9.1.78,13.6,1.43s9,1.41,13.45,2.4a257.83,257.83,0,0,1,26.19,7.5c8.58,2.9,17.06,6.08,25.47,9.4,16.82,6.65,33.39,13.83,50,20.93s33.2,14.18,50.18,20.26A205.81,205.81,0,0,0,621,190.16a71.41,71.41,0,0,0,13.33,1.69,32.17,32.17,0,0,0,6.65-.54,16.52,16.52,0,0,0,6.12-2.45,11.83,11.83,0,0,0,4.11-5.06,18.14,18.14,0,0,0,1.35-6.49,45.2,45.2,0,0,0-1.83-13.3,149.2,149.2,0,0,0-9.89-25.16A149.06,149.06,0,0,1,651,163.92a45.71,45.71,0,0,1,2,13.4,18.8,18.8,0,0,1-1.32,6.7,12.44,12.44,0,0,1-4.26,5.36,17.18,17.18,0,0,1-6.34,2.64,32.46,32.46,0,0,1-6.81.63,72.18,72.18,0,0,1-13.52-1.54,208.73,208.73,0,0,1-26.11-7.39c-17.1-5.9-33.8-12.82-50.5-19.7S510.86,150.14,494,143.71c-8.43-3.21-16.9-6.28-25.45-9.05a251.82,251.82,0,0,0-26-7.1c-4.36-.92-8.78-1.61-13.23-2.21s-8.89-1-13.33-1.26a99.79,99.79,0,0,0-13.29.17,47.94,47.94,0,0,0-12.7,2.67c-4,1.5-7.56,3.86-9.74,7.22a17.82,17.82,0,0,0-2.45,11.69,41,41,0,0,0,3.46,12.35,78.46,78.46,0,0,0,6.35,11.52A118.09,118.09,0,0,0,404.76,190a101.77,101.77,0,0,0,10.13,8.48,52,52,0,0,0,11.17,6.4h0a2.5,2.5,0,0,1-1.83,4.66Z"/><path class="cls-3" d="M637,140.44a37.09,37.09,0,0,1-32.62-2.71,39.43,39.43,0,0,1-12.52-11.39,48.45,48.45,0,0,1-4.21-7.44L584,111.28l-7.21-15.23L575,92.24l-.91-1.91-.45-1-.11-.24-.06-.14a2,2,0,0,1-.12-.34,2.26,2.26,0,0,1,2.44-2.79l1,.09,2.06.11,4.16.14a149,149,0,0,0,16.65-.52,80.93,80.93,0,0,0,8.16-1.16A27,27,0,0,0,615.24,82a34.5,34.5,0,0,0,6.38-4.8c2-1.84,3.93-3.84,5.78-5.9,3.73-4.12,7.16-8.5,10.69-12.92.45-.55.9-1.1,1.39-1.66.25-.28.49-.55.82-.86l.28-.26.21-.15.13-.09.23-.11a1.26,1.26,0,0,1,.43-.13,1.44,1.44,0,0,1,.87.09c.52.25.54.37.54.37l.11.15a3.45,3.45,0,0,1,.2.32,1.49,1.49,0,0,1,.13.25l1.69,3.89L648.44,68l6.61,15.51,1.66,3.88c.53,1.31,1.14,2.54,1.61,3.92a30.89,30.89,0,0,1,1.34,4.08l.53,2.08c.16.69.23,1.41.34,2.11a38,38,0,0,1-9.7,31.46A37.49,37.49,0,0,1,637,140.44Zm-.08-.19a37.09,37.09,0,0,0,13.71-9.47,37.76,37.76,0,0,0,8.22-14.49,37.08,37.08,0,0,0,1-16.62c-.12-.69-.2-1.39-.37-2.06l-.56-2a28.86,28.86,0,0,0-1.38-4c-1-2.6-2.28-5.14-3.41-7.71l-6.91-15.37-3.46-7.69L641.92,57c-.08-.13-.12-.32-.09-.24a1.69,1.69,0,0,0-.36.29c-.24.24-.47.5-.7.76-.46.53-.9,1.08-1.33,1.63-3.48,4.41-6.91,8.87-10.65,13.08-1.86,2.1-3.8,4.15-5.86,6.08a36.54,36.54,0,0,1-6.72,5.13,28.94,28.94,0,0,1-8,2.66,84.1,84.1,0,0,1-8.37,1.12,153,153,0,0,1-16.86.39c-1.41,0-2.81-.1-4.22-.19l-2.1-.16-1-.11a.64.64,0,0,0-.68.39c-.13.27,0,.52.16.86l.43,1,.87,1.92,1.73,3.85L585,110.83l3.46,7.69a47.74,47.74,0,0,0,4,7.38,38.26,38.26,0,0,0,12.12,11.43A36.77,36.77,0,0,0,636.87,140.25Z"/><path class="cls-3" d="M638,138c-6.77-4-13-9.33-17-16.23a33.42,33.42,0,0,1-4-11.18,37.53,37.53,0,0,1-.05-11.92c1.17-7.92,4.36-15.38,8.28-22.28A132.35,132.35,0,0,1,639.1,57.08a1,1,0,0,1,1.53,1.29h0A130.71,130.71,0,0,0,626.5,77.17c-4,6.71-7.27,14-8.58,21.67a36.73,36.73,0,0,0-.2,11.65,32.9,32.9,0,0,0,3.73,11.06C625.27,128.43,631.32,133.88,638,138Z"/><path class="cls-3" d="M632.54,65.17c1.13-1.41,2.34-2.71,3.5-4a15.68,15.68,0,0,0,2.87-4,2,2,0,0,0,0-1.78,3.1,3.1,0,0,0-.63-.77,5,5,0,0,0-.43-.35,2.59,2.59,0,0,0-.39-.24,6.59,6.59,0,0,0-2.24-.35,23.74,23.74,0,0,0-2.52.12,77.2,77.2,0,0,0-10.21,2c-3.38.85-6.74,1.81-10.09,2.83s-6.69,2.1-9.95,3.27A82.62,82.62,0,0,0,593,66.23a62.67,62.67,0,0,0-8.8,5.55,25,25,0,0,0-3.78,3.48,7.48,7.48,0,0,0-2.1,4.35,7.19,7.19,0,0,0,.52,2.37A7.71,7.71,0,0,0,580,84.12a8.9,8.9,0,0,0,4.16,2.67,27.77,27.77,0,0,0,10.26.82,82.69,82.69,0,0,0,10.37-1.47q2.57-.51,5.12-1.11c.86-.2,1.71-.41,2.56-.63a13.27,13.27,0,0,0,2.46-.76,9,9,0,0,0,3.79-3.36,14.26,14.26,0,0,0,1.95-4.77,15.49,15.49,0,0,0,.26-5.17,8.15,8.15,0,0,0-.71-2.47,3.64,3.64,0,0,0-1.82-1.7,10.62,10.62,0,0,0-5.09-.81,16.44,16.44,0,0,0-5.08,1.14,16.67,16.67,0,0,0-8,6.6,16.65,16.65,0,0,1,7.9-6.71,16.43,16.43,0,0,1,5.12-1.21,10.77,10.77,0,0,1,5.2.77,3.86,3.86,0,0,1,2,1.8,7.92,7.92,0,0,1,.77,2.55,15.67,15.67,0,0,1-.2,5.29,14.5,14.5,0,0,1-1.95,4.93,9.56,9.56,0,0,1-3.94,3.57,13.46,13.46,0,0,1-2.54.83c-.85.22-1.7.45-2.55.65q-2.56.65-5.14,1.18a85,85,0,0,1-10.43,1.61,28.51,28.51,0,0,1-10.59-.75,9.73,9.73,0,0,1-4.6-2.9,8.34,8.34,0,0,1-1.4-2.39,10.49,10.49,0,0,1-.42-1.31,4.69,4.69,0,0,1-.19-1.42,8.41,8.41,0,0,1,2.28-5,26.58,26.58,0,0,1,3.89-3.69,63.9,63.9,0,0,1,8.91-5.76A85.46,85.46,0,0,1,602,60.62c3.33-1.24,6.65-2.34,10-3.42s6.72-2.07,10.13-3a78.5,78.5,0,0,1,10.42-2.12,24.55,24.55,0,0,1,2.73-.17,8.29,8.29,0,0,1,2.93.47,4,4,0,0,1,.74.43,5.06,5.06,0,0,1,.59.47,4.59,4.59,0,0,1,1,1.25,3.52,3.52,0,0,1,.44,1.69,4.39,4.39,0,0,1-.3,1.61,17,17,0,0,1-3.17,4.59c-1.16,1.33-2.33,2.62-3.38,4a1,1,0,0,1-1.58-1.23Z"/><path class="cls-3" d="M451.88,127.15c1-6.69,4-12.51,5.2-18.74a18.4,18.4,0,0,0-.31-9.24A15.22,15.22,0,0,0,454.66,95a25.51,25.51,0,0,0-3.14-3.54,33,33,0,0,0-7.71-5.61,67,67,0,0,0-8.93-3.63,61.56,61.56,0,0,1-8.93-3.8A42.13,42.13,0,0,1,418,72.88a42,42,0,0,0,8.05,5.35,60.92,60.92,0,0,0,9,3.54,67.73,67.73,0,0,1,9.11,3.43,33.75,33.75,0,0,1,8.07,5.54,26.87,26.87,0,0,1,3.37,3.61A16.52,16.52,0,0,1,458,98.76a19.75,19.75,0,0,1,.58,9.91c-1.07,6.53-4,12.51-4.7,18.71v0a1,1,0,1,1-2-.23Z"/><path class="cls-3" d="M452,128.71a46.19,46.19,0,0,1-13.91-10.09,64.44,64.44,0,0,1-9.85-14,34.47,34.47,0,0,1-3-8,57.94,57.94,0,0,1-1.2-8.44,32.58,32.58,0,0,0-1.49-8.28,19,19,0,0,0-4.59-7,19.16,19.16,0,0,1,4.83,6.92,33,33,0,0,1,1.77,8.31,57.48,57.48,0,0,0,1.43,8.31,34.25,34.25,0,0,0,3.14,7.74,63.85,63.85,0,0,0,10,13.4,44.48,44.48,0,0,0,13.66,9.33,1,1,0,0,1-.8,1.83h0Z"/><path class="cls-3" d="M450.68,123.87a26.8,26.8,0,0,0-1.34-12.28,50.09,50.09,0,0,0-5.43-11.25,70.79,70.79,0,0,0-7.62-10,54.1,54.1,0,0,0-9.38-8.31,54.24,54.24,0,0,1,9.48,8.23,71.94,71.94,0,0,1,7.73,9.9,50.65,50.65,0,0,1,5.58,11.28A27.24,27.24,0,0,1,451.17,124a.24.24,0,0,1-.28.21.25.25,0,0,1-.21-.28Z"/><path class="cls-3" d="M450.24,113.69l1.17-1.6c.35-.55.74-1.09,1.07-1.66a20.4,20.4,0,0,0,1.7-3.56,10.41,10.41,0,0,0,.62-3.87,15.72,15.72,0,0,0-.82-3.87,15.13,15.13,0,0,1,.94,3.86,10.42,10.42,0,0,1-.51,4,19.56,19.56,0,0,1-1.61,3.66c-.31.6-.69,1.15-1,1.72L450.64,114a.24.24,0,0,1-.34.06.25.25,0,0,1-.07-.35h0Z"/><path class="cls-3" d="M450.28,114.22a20.69,20.69,0,0,1-6.09,1.51,13.11,13.11,0,0,1-3.13-.1,6.85,6.85,0,0,1-2.9-1.11,6.87,6.87,0,0,0,2.92,1,12.78,12.78,0,0,0,3.09,0,19.77,19.77,0,0,0,5.93-1.7.23.23,0,1,1,.19.41Z"/><path class="cls-3" d="M446.86,104.93a8.55,8.55,0,0,0,1.85-2.91,10.25,10.25,0,0,0,.67-3.43,17.52,17.52,0,0,0-.24-3.54c-.17-1.17-.47-2.32-.73-3.48.29,1.15.63,2.29.85,3.46a18.44,18.44,0,0,1,.35,3.56,10.74,10.74,0,0,1-.58,3.55,9.05,9.05,0,0,1-1.85,3.11.23.23,0,0,1-.32,0,.22.22,0,0,1,0-.32h0Z"/><path class="cls-3" d="M443,98.67a9.28,9.28,0,0,0,1.55-4.39,11.73,11.73,0,0,0,0-2.37A8.63,8.63,0,0,0,444,89.6a8.6,8.6,0,0,1,.62,2.3,11.93,11.93,0,0,1,.09,2.39,9.7,9.7,0,0,1-1.43,4.57.18.18,0,0,1-.25.06.18.18,0,0,1-.05-.24Z"/><path class="cls-3" d="M438.14,92.05a6.08,6.08,0,0,0,1-3.2,8.09,8.09,0,0,0-.46-3.38,8.27,8.27,0,0,1,.56,3.38,6.26,6.26,0,0,1-.91,3.31.1.1,0,0,1-.14,0,.1.1,0,0,1,0-.14Z"/><path class="cls-3" d="M438.2,92.26a6.32,6.32,0,0,1-3.35.78,8.38,8.38,0,0,1-3.35-.7,8.36,8.36,0,0,0,3.35.6,6.23,6.23,0,0,0,3.24-.85.1.1,0,0,1,.12.16Z"/><path class="cls-3" d="M434.79,88.11a3.91,3.91,0,0,0,.37-2.55,9.69,9.69,0,0,0-.74-2.57,9.61,9.61,0,0,1,.84,2.56,4.12,4.12,0,0,1-.3,2.67.1.1,0,1,1-.18-.1Z"/><path class="cls-3" d="M434.85,88.32a5.43,5.43,0,0,1-3,.74,7.12,7.12,0,0,1-2.94-.76,6.11,6.11,0,0,0,5.8-.15.11.11,0,0,1,.14,0,.1.1,0,0,1,0,.14Z"/><path class="cls-3" d="M443,99.09a9.72,9.72,0,0,1-4.72.79,11.11,11.11,0,0,1-2.36-.41,8.9,8.9,0,0,1-2.2-.92,8.37,8.37,0,0,0,2.22.83,11.67,11.67,0,0,0,2.35.33,9.43,9.43,0,0,0,4.56-.94.17.17,0,0,1,.23.08.17.17,0,0,1-.07.23Z"/><path class="cls-3" d="M446.85,105.43a30.83,30.83,0,0,1-6.33,1.63,13.25,13.25,0,0,1-3.27,0,6.46,6.46,0,0,1-3-1.1,6.37,6.37,0,0,0,3.05,1,13.45,13.45,0,0,0,3.23-.16,30,30,0,0,0,6.2-1.84.23.23,0,0,1,.29.13.22.22,0,0,1-.12.29Z"/><path class="cls-3" d="M534.79,159.07c-.11,5.37-1.95,10.2-2.25,15.16a14.24,14.24,0,0,0,1.12,7.12,14.39,14.39,0,0,0,4.81,5.44,25.5,25.5,0,0,0,6.54,3.62,52.62,52.62,0,0,0,7.32,2,48.18,48.18,0,0,1,7.35,2.11,33.26,33.26,0,0,1,6.74,3.59,33,33,0,0,0-6.83-3.35,47.56,47.56,0,0,0-7.37-1.84,53.23,53.23,0,0,1-7.47-1.76,26.36,26.36,0,0,1-6.89-3.51,15.49,15.49,0,0,1-5.35-5.72,15.72,15.72,0,0,1-1.49-7.76c.18-5.23,1.85-10.21,1.77-15.06v0a1,1,0,0,1,1-1,1,1,0,0,1,1,1Z"/><path class="cls-3" d="M534.36,157.66a36.67,36.67,0,0,1,11.91,6.58,50.65,50.65,0,0,1,9.07,10,27.85,27.85,0,0,1,3.11,6,46.84,46.84,0,0,1,1.75,6.49,25.49,25.49,0,0,0,2,6.32,14.94,14.94,0,0,0,4.25,5,15.09,15.09,0,0,1-4.48-4.92,25.86,25.86,0,0,1-2.24-6.32,45.41,45.41,0,0,0-2-6.32,26.5,26.5,0,0,0-3.23-5.7,49.86,49.86,0,0,0-9.17-9.41,34.8,34.8,0,0,0-11.56-5.86,1,1,0,1,1,.56-1.92h0Z"/><path class="cls-3" d="M535.89,161.51a21.11,21.11,0,0,0,2.25,9.44,39.66,39.66,0,0,0,5.35,8.25,56.73,56.73,0,0,0,6.92,7,43,43,0,0,0,8.15,5.57,43,43,0,0,1-8.23-5.48,56.44,56.44,0,0,1-7-7,40.16,40.16,0,0,1-5.49-8.25,21.43,21.43,0,0,1-2.4-9.62.25.25,0,0,1,.25-.25.26.26,0,0,1,.25.26Z"/><path class="cls-3" d="M537.24,169.44a28.83,28.83,0,0,0-1.43,2.76,14.71,14.71,0,0,0-1,2.94,8,8,0,0,0-.12,3.08,12.48,12.48,0,0,0,1,2.94,12.19,12.19,0,0,1-1.13-2.92,8.14,8.14,0,0,1,0-3.15,15.07,15.07,0,0,1,.89-3,26.61,26.61,0,0,1,1.34-2.86.24.24,0,0,1,.33-.11.25.25,0,0,1,.11.34Z"/><path class="cls-3" d="M537.09,169a16,16,0,0,1,4.62-1.77,10.24,10.24,0,0,1,2.47-.22,5.39,5.39,0,0,1,2.37.59,5.4,5.4,0,0,0-2.38-.48,9.86,9.86,0,0,0-2.41.33,16,16,0,0,0-4.44,1.93.22.22,0,0,1-.31-.06.23.23,0,0,1,.07-.32Z"/><path class="cls-3" d="M540.75,176a6.65,6.65,0,0,0-1.17,2.44,8.12,8.12,0,0,0-.19,2.74,14.17,14.17,0,0,0,.53,2.73c.25.9.59,1.77.91,2.65-.35-.87-.73-1.72-1-2.62a13.47,13.47,0,0,1-.64-2.74,8.47,8.47,0,0,1,.08-2.84,7.42,7.42,0,0,1,1.14-2.63.22.22,0,0,1,.31-.06.24.24,0,0,1,.06.32h0Z"/><path class="cls-3" d="M544.36,180.45a7.41,7.41,0,0,0-.79,3.57,8.74,8.74,0,0,0,.23,1.84,6.5,6.5,0,0,0,.63,1.76,7.11,7.11,0,0,1-.72-1.73,9.87,9.87,0,0,1-.31-1.87,7.54,7.54,0,0,1,.65-3.73.17.17,0,0,1,.31.15Z"/><path class="cls-3" d="M548.81,185.13a4.87,4.87,0,0,0-.45,2.59,6.51,6.51,0,0,0,.68,2.59,6.46,6.46,0,0,1-.78-2.58,5,5,0,0,1,.38-2.69.1.1,0,0,1,.18.08Z"/><path class="cls-3" d="M548.72,185a4.93,4.93,0,0,1,2.55-.94,6.6,6.6,0,0,1,2.69.22,6.55,6.55,0,0,0-2.68-.12,4.88,4.88,0,0,0-2.44,1,.1.1,0,0,1-.14,0,.11.11,0,0,1,0-.14Z"/><path class="cls-3" d="M551.83,187.87a3,3,0,0,0-.05,2,7.48,7.48,0,0,0,.82,1.93,8.14,8.14,0,0,1-.92-1.9,3.24,3.24,0,0,1,0-2.13.1.1,0,0,1,.13-.06.1.1,0,0,1,.06.13Z"/><path class="cls-3" d="M551.73,187.69a4.89,4.89,0,0,1,4.63-.55,4.78,4.78,0,0,0-4.51.71.1.1,0,0,1-.13-.15Z"/><path class="cls-3" d="M544.27,180.07A7.66,7.66,0,0,1,547.9,179a8.45,8.45,0,0,1,1.88.1,6.69,6.69,0,0,1,1.81.51,6.71,6.71,0,0,0-1.82-.43,8.9,8.9,0,0,0-1.86,0,7.36,7.36,0,0,0-3.45,1.2.18.18,0,0,1-.24-.05.17.17,0,0,1,0-.24Z"/><path class="cls-3" d="M540.64,175.49a24.4,24.4,0,0,1,4.8-1.88,10.61,10.61,0,0,1,2.56-.36,5.17,5.17,0,0,1,2.48.57,5.18,5.18,0,0,0-2.48-.46,10.69,10.69,0,0,0-2.5.46,23.81,23.81,0,0,0-4.64,2.07.24.24,0,0,1-.31-.08.23.23,0,0,1,.08-.31Z"/></g></g></svg>